<?xml version="1.0" encoding="utf-8"?>
<!-- Generator: Adobe Illustrator 18.1.1, SVG Export Plug-In . SVG Version: 6.00 Build 0)  -->
<svg version="1.1" id="Layer_1" xmlns="http://www.w3.org/2000/svg" xmlns:xlink="http://www.w3.org/1999/xlink" x="0px" y="0px"
	 viewBox="0 0 200 200" enable-background="new 0 0 200 200" xml:space="preserve">
<circle fill="#F7941F" cx="100" cy="100" r="100"/>
<path fill="#FFFFFF" d="M147.6,89.7c2.1-13.3-8-19.6-21.2-25.5l4.2-18.6l-11.1-3.2L115.2,60c0,0-6.9-1.1-9-2.1l4.2-17.5l-11.1-3.2
	l-4.2,18.6c-2.1-1.1-22.3-6.9-22.3-6.9L69.6,60l8,2.1c4.2,1.1,5.3,4.2,5.3,6.9l-12.2,48.8c-1.1,2.7-2.7,4.2-5.3,3.2l-10.1-2.7
	l-3.2,12.2l22.3,5.3l-4.2,18.6l11.1,3.2l4.2-18.6l9,2.1l-4.2,18.6l11.1,3.2l4.2-18.6c23.3,5.8,36.1-1.6,38.7-14.3
	c2.7-12.7,0-21.2-10.1-26.5C140.7,102.9,145.5,98.7,147.6,89.7L147.6,89.7z M122.1,124.1c-3.2,13.3-26.5,6.9-33.4,4.2l6.9-24.4
	C102,105,126.4,109.3,122.1,124.1L122.1,124.1z M126.4,88.6c-3.2,12.2-22.3,6.9-28.6,4.2l5.3-21.2C108.9,73.2,129.6,76.4,126.4,88.6
	z"/>
</svg>
