<?xml version="1.0" encoding="utf-8"?>
<!-- Generator: Adobe Illustrator 18.1.1, SVG Export Plug-In . SVG Version: 6.00 Build 0)  -->
<svg version="1.1" id="Layer_1" xmlns="http://www.w3.org/2000/svg" xmlns:xlink="http://www.w3.org/1999/xlink" x="0px" y="0px"
	 viewBox="0 0 200 200" enable-background="new 0 0 200 200" xml:space="preserve">
<path fill="#F7931A" d="M143.4,38.2c0.3,0,0.5,0,0.7,0c18.4,0,36.7,0,55.1,0c0.7,0,0.8,0.2,0.8,0.8c0,40.5,0,80.9,0,121.4
	c0,0.7-0.2,0.8-0.8,0.8c-18.4,0-36.8,0-55.2,0c-0.2,0-0.4,0-0.6,0c20.4-15.5,31.3-35.8,31.8-61.5C174.6,74,163.8,53.7,143.4,38.2z"
	/>
<path fill="#F7931A" d="M56.6,38.1C36.2,53.6,25,74,25,99.7c0,25.6,11.2,46,31.6,61.5c-0.3,0-0.5,0-0.7,0c-18.2,0-36.4,0-54.7,0
	c-0.9,0-0.9,0-0.9-0.9c0-40.4,0-80.8,0-121.3c0-0.6,0.1-0.9,0.8-0.9c18.3,0,36.5,0,54.8,0C56.2,38.1,56.4,38.1,56.6,38.1z"/>
<g>
	<path fill="#F7931A" d="M113.6,102.8c-0.6-0.6-1.2-1.1-1.8-1.4c-0.7-0.3-1.5-0.5-2.5-0.6c-1-0.1-1.9-0.1-2.7-0.1
		c-0.8,0-1.8,0.2-2.9,0.4c-1.1,0.2-2,0.4-2.7,0.5c-0.6,0.2-1.4,0.4-2.4,0.6c-1,0.3-1.6,0.4-1.8,0.5l3.2,12.9c0.2,0,0.7-0.2,1.4-0.3
		c0.7-0.2,1.3-0.3,1.8-0.4c0.5-0.1,1.1-0.3,2-0.6c0.9-0.3,1.6-0.5,2.2-0.7c0.6-0.2,1.3-0.5,2.1-0.9c0.8-0.4,1.4-0.7,2-1.1
		c0.5-0.3,1.1-0.8,1.6-1.2c0.5-0.5,0.9-1,1.2-1.5c0.3-0.5,0.5-1.1,0.6-1.8c0.1-0.6,0.1-1.3-0.1-2
		C114.6,104.2,114.2,103.4,113.6,102.8z"/>
	<path fill="#F7931A" d="M100.4,95.5c0.8-0.2,1.5-0.5,2-0.7c0.5-0.2,1.2-0.5,1.9-0.9c0.7-0.4,1.3-0.7,1.7-1.2
		c0.4-0.4,0.8-0.9,1.2-1.4c0.4-0.5,0.6-1.1,0.7-1.7c0.1-0.6,0-1.3-0.1-2c-0.2-0.8-0.5-1.5-1-2.1c-0.5-0.6-1-1-1.6-1.3
		c-0.6-0.3-1.3-0.5-2.1-0.6c-0.8-0.1-1.6-0.1-2.2-0.1c-0.7,0-1.5,0.1-2.4,0.3c-0.9,0.2-1.7,0.3-2.2,0.4c-0.5,0.1-1.2,0.3-2,0.5
		c-0.8,0.2-1.3,0.3-1.5,0.4l2.9,11.7c0.1,0,0.6-0.1,1.3-0.3c0.8-0.2,1.3-0.3,1.8-0.4C98.9,96,99.6,95.8,100.4,95.5z"/>
	<path fill="#F7931A" d="M100,39.8c-33.3,0-60.2,27-60.2,60.2s27,60.2,60.2,60.2s60.2-27,60.2-60.2S133.3,39.8,100,39.8z
		 M126.6,108.4c-0.3,1.5-0.8,2.9-1.6,4c-0.8,1.1-1.8,2.2-3.1,3.1c-1.3,1-2.8,1.8-4.3,2.5c-1.5,0.7-3.3,1.3-5.4,1.9l2.4,9.7l-5.9,1.4
		l-2.4-9.6c-2,0.5-3.6,0.9-4.7,1.1l2.4,9.6l-5.9,1.4l-2.4-9.7c-0.5,0.1-1.1,0.3-2.1,0.5c-0.9,0.2-1.6,0.4-2.1,0.5l-7.6,1.9l-0.5-7.3
		l4.2-1c1.3-0.3,1.8-1.1,1.7-2.5l-3.8-15.3l0.6-0.2c-0.2,0-0.4,0-0.6,0.1l-2.7-10.9c-0.8-1.6-2.1-2.2-4-1.8l-4.2,1l-1.5-6.2l8.1-1.9
		c1.6-0.4,2.9-0.7,3.7-0.9l-2.4-9.6l5.9-1.4l2.3,9.4c2.1-0.6,3.6-1,4.6-1.2l-2.3-9.3l5.9-1.4l2.4,9.6c2-0.3,3.9-0.5,5.5-0.5
		c1.6,0,3.2,0.2,4.7,0.7c1.5,0.4,2.8,1.2,3.9,2.2c1.1,1,1.9,2.4,2.5,4c1.6,4.5,0.7,8.2-2.6,11c3.1,0,5.7,0.7,7.6,2.3
		c1.9,1.5,3.2,4.1,3.7,7.7C126.9,105.2,126.9,106.9,126.6,108.4z"/>
</g>
</svg>
