<?xml version="1.0" encoding="utf-8"?>
<!-- Generator: Adobe Illustrator 18.1.1, SVG Export Plug-In . SVG Version: 6.00 Build 0)  -->
<svg version="1.1" id="Layer_1" xmlns="http://www.w3.org/2000/svg" xmlns:xlink="http://www.w3.org/1999/xlink" x="0px" y="0px"
	 viewBox="0 0 400 400" enable-background="new 0 0 400 400" xml:space="preserve">
<circle fill="#E8ECF1" cx="200.2" cy="200" r="200"/>
<path fill="#F7931A" d="M322.6,205c1.4-34.6-9.8-65-33.8-90.2c-22.4-23.6-50.2-36.4-82.8-38c-34.6-1.6-65,9.4-90.2,33
	c-24.4,23-37.4,51.4-38.8,84.8c-1.6,34.8,9.8,65.4,33.8,90.6s54,37.6,88.4,38.2c32.2-0.4,60-11,83.6-32.8
	C307.6,267.6,321.2,239,322.6,205z M49.6,200c-0.2-51.4,22.2-92.2,63-123.2c-0.4,0-0.8,0-0.8,0H42.6C16,110.8,0.2,153.6,0.2,200
	S16,289.2,42.6,323.2h70.2C71.8,292.2,49.6,251.4,49.6,200z M357.8,76.8h-71.2c40.8,31,62.6,71.8,63.4,123.4
	c-1,51.4-22.6,92.2-63.6,123.2h71.2c25-31.8,40.6-71.6,42.4-114.6v-17.4C398.2,148.2,382.6,108.6,357.8,76.8z"/>
<path fill="#FFFFFF" d="M238,184.2c0.4-0.6,0.6-0.8,0.8-1c4.8-5,7.4-10.6,6.4-17.6c-0.8-5.8-3.2-11-7-15.4c-4-4.6-9.6-6.4-15.6-6.8
	c-5.2-0.2-10.6,0.2-15.8,0.6c-1.6,0.2-1.8-0.4-2.2-1.6c-1.6-6.2-3.2-12.4-4.8-18.6c-0.4-1.2-0.8-1.6-2.2-1.2
	c-2.8,0.8-5.8,1.6-8.8,2.2c-3.4,0.8-3,0.8-2.4,4c1.4,5.6,2.6,11.2,4,16.8c0.2,1,0,1.6-1,1.8c-2.8,0.8-5.4,1.4-8.2,2.2
	c-0.4,0-1-0.4-1.2-0.8c-0.8-3-1.4-6.2-2.2-9.4c-1-3.6-1.8-7.4-2.8-11.2c-0.4,0-0.6,0-0.8,0c-4,1-7.8,2-11.8,3
	c-0.4,0.4-0.4,1-0.2,1.8c1.6,6.4,3.2,12.8,4.8,19.2c0.2,1,0.2,1.4-1,1.8c-8,2-15.8,4-23.8,6c-0.8,0.2-1.4,0.4-2,0.8
	c0.4,1,0.6,2,0.8,2.8c0.8,3.2,1.6,6.6,2.6,9.8c0.4,1,0.6,1.8,2.2,1.4c2.8-1,5.8-1.8,8.6-2.4c4.2-0.8,7.2,0.2,8.6,4.8
	c1,3.6,2,7.4,2.8,11.2c2.4,9.6,4.8,19.4,7.2,29c1.4,6,3.2,12,4.6,18.2c0.6,2.4,0.8,5-2,6.4c-1,0.6-2.2,1-3.6,1.4
	c-2.2,0.6-4.4,1-6.8,1.4c-0.8,0.2-1.4,0.6-1.2,1.6c0.4,3.6,0.6,7,0.8,10.4c0.2,1.6,0.4,3.2,0.6,5c0.6,0,1-0.2,1.4-0.2
	c8-2,16.2-4,24.2-6c1-0.2,1.4,0,1.6,1c0.4,1.6,0.8,3.2,1.2,4.8c1.4,5.4,2.8,10.8,4,16.2c1.6-0.4,3-0.8,4.4-1c2.4-0.6,5-1,7.4-1.8
	c1.6-0.4,1.8-0.6,1.4-2.2c-0.4-1.4-0.8-3-1-4.4c-1.2-4.8-2.4-9.6-3.6-14.4c-0.4-1,0-1.6,1-1.8c2.2-0.4,4.4-1,6.6-1.6
	c2-0.4,2.6-0.2,3,1.6c0.2,0.4,0.2,0.8,0.4,1.4c1.4,5.6,2.8,11.4,4.4,17c0.2,1,0.8,1.4,1.8,1.2c3.6-1,7.4-1.8,11.2-2.8
	c0.8-0.2,1.2-0.6,0.8-1.6c-0.4-1.4-0.8-2.6-1-4c-1.2-5.4-2.4-10.6-3.6-15.8c-0.2-0.8,0.2-1.2,0.8-1.4c3.8-1.4,7.8-2.8,11.4-4.4
	c5.2-2.2,10-5,14-9.4c4.8-5.4,7-11.6,7.2-18.6c0.2-4.4-0.8-8.8-2.4-13c-3.4-9-9.8-14.2-19.4-15.2C241.2,184.6,239.8,184.4,238,184.2
	z"/>
<path fill="#F7931A" d="M220.6,201.2c3.2,0,6.4,0.2,9.4,1.8c4.4,2.4,7,6,6.8,11.2c-0.2,4.6-2.4,8.6-6.2,11.4c-5.4,4-12,6-18.4,7.6
	c-2.8,0.8-5.6,1.4-8.4,2.2c-1,0.2-1.2,0-1.4-0.8c-0.8-3.6-1.8-7-2.6-10.4c-1.4-5.4-2.8-10.8-4.2-16.4c-0.4-1.2,0-1.6,1-1.8
	c6-1.4,12-2.8,18-4.2C216.4,201.2,218.6,201.4,220.6,201.2z"/>
<path fill="#F7931A" d="M205.8,161.6c4,0.2,7.8,1,10.8,3.6c2,1.8,3.2,4.2,3.6,6.8c1,5-1.8,8.6-5.4,11.4c-6.2,4.6-13.2,7-20.6,8.6
	c-0.4,0-0.8,0.2-1.2,0.2c-0.8,0-1.2,0-1.4-1c-2-8.2-4-16.2-6.2-24.4c-0.2-0.8,0-1.4,0.8-1.6c5.4-1.4,10.8-3.2,16.6-3.6
	C204,161.8,204.8,161.6,205.8,161.6z"/>
</svg>
