<?xml version="1.0" encoding="utf-8"?>
<!-- Generator: Adobe Illustrator 18.1.1, SVG Export Plug-In . SVG Version: 6.00 Build 0)  -->
<svg version="1.1" id="Isolation_Mode" xmlns="http://www.w3.org/2000/svg" xmlns:xlink="http://www.w3.org/1999/xlink" x="0px"
	 y="0px" viewBox="0 0 200 200" enable-background="new 0 0 200 200" xml:space="preserve">
<g>
	<circle fill="#FFFFFF" cx="100" cy="100" r="87.5"/>
	
		<linearGradient id="SVGID_1_" gradientUnits="userSpaceOnUse" x1="2183.9302" y1="961.7478" x2="3873.3315" y2="3518.4373" gradientTransform="matrix(7.093617e-002 0 0 7.093617e-002 -108.417 -49.1872)">
		<stop  offset="0" style="stop-color:#F4D933"/>
		<stop  offset="1" style="stop-color:#E3821F"/>
	</linearGradient>
	<path fill="url(#SVGID_1_)" d="M100,0C44.8,0,0,44.8,0,100s44.7,100,100,100S200,155.2,200,100S155.2,0,100,0z M100,177
		c-42.5,0-77-34.5-77-77s34.5-77,77-77s76.9,34.5,76.9,77S142.5,177,100,177z"/>
	<g>
		<g>
			<path id="XMLID_145_" fill="#152569" d="M66.7,134.2l3.9-7.7h46.2c6.4,0,11.5-5.1,11.5-11.5l0,0c0-6.4-5.1-11.5-11.5-11.5H78.3
				v-7.7h38.4c10.6,0,19.2,8.6,19.2,19.2l0,0c0,10.6-8.6,19.2-19.2,19.2L66.7,134.2L66.7,134.2z"/>
			<path fill="#152569" d="M116.7,136.3H63.2l6-12h47.4c5.1,0,9.4-4.3,9.4-9.4c0-5.1-4.3-9.4-9.4-9.4H76.1v-12h40.6
				c11.8,0,21.3,9.6,21.3,21.3S128.4,136.3,116.7,136.3z M70.1,132h46.6c9.4,0,17.1-7.7,17.1-17.1s-7.7-17.1-17.1-17.1H80.4v3.4
				h36.3c7.5,0,13.7,6.2,13.7,13.7s-6.2,13.7-13.7,13.7H71.9L70.1,132z"/>
		</g>
		<g>
			<path id="XMLID_144_" fill="#152569" d="M66.7,64.6l3.9,7.7h41c6.4,0,11.5,5.1,11.5,11.5l0,0c0,6.4-5.1,11.5-11.5,11.5H82v7.7
				h29.4c10.6,0,19.2-8.6,19.2-19.2l0,0c0-10.6-8.6-19.2-19.2-19.2C111.5,64.6,66.7,64.6,66.7,64.6z"/>
			<path fill="#152569" d="M111.5,105.1H79.9v-12h31.6c5.1,0,9.4-4.3,9.4-9.4s-4.3-9.4-9.4-9.4H69.1l-6-12h48.3
				c11.8,0,21.3,9.6,21.3,21.3S123.4,105.1,111.5,105.1z M84.2,100.9h27.3c9.4,0,17.1-7.7,17.1-17.1s-7.7-17.1-17.1-17.1H70.1
				l1.7,3.4h39.7c7.5,0,13.7,6.2,13.7,13.7c0,7.5-6.1,13.6-13.7,13.6H84.3L84.2,100.9L84.2,100.9L84.2,100.9z"/>
		</g>
		<g>
			<rect id="XMLID_143_" x="78.3" y="65" fill="#152569" width="7.7" height="69.1"/>
			<path fill="#152569" d="M88,136.3H76V62.8h12V136.3z M80.4,132h3.4V67.1h-3.4V132z"/>
		</g>
		<g>
			<rect id="XMLID_142_" x="87.6" y="53" fill="#152569" width="7.7" height="15.4"/>
			<path fill="#152569" d="M96.4,69.5h-9.8V52h9.8V69.5z M88.6,67.4h5.5V54.2h-5.5C88.6,54.2,88.6,67.4,88.6,67.4z"/>
		</g>
		<g>
			<rect id="XMLID_141_" x="104.3" y="53" fill="#152569" width="7.7" height="15.4"/>
			<path fill="#152569" d="M113,69.5h-9.8V52h9.8V69.5z M105.4,67.4h5.5V54.2h-5.5C105.4,54.2,105.4,67.4,105.4,67.4z"/>
		</g>
		<g>
			<rect id="XMLID_140_" x="87.6" y="129.9" fill="#152569" width="7.7" height="15.4"/>
			<path fill="#152569" d="M96.4,146.3h-9.8v-17.4h9.8V146.3z M88.6,144.2h5.5V131h-5.5C88.6,131,88.6,144.2,88.6,144.2z"/>
		</g>
		<g>
			<rect id="XMLID_139_" x="104.3" y="129.9" fill="#152569" width="7.7" height="15.4"/>
			<path fill="#152569" d="M113,146.3h-9.8v-17.4h9.8V146.3z M105.4,144.2h5.5V131h-5.5C105.4,131,105.4,144.2,105.4,144.2z"/>
		</g>
	</g>
	<path fill="#152569" d="M100,168.1C62.5,168.1,32,137.6,32,100S62.5,31.9,100,31.9s68.1,30.5,68.1,68.1S137.5,168.1,100,168.1z
		 M100,38.7c-33.8,0-61.3,27.5-61.3,61.3s27.5,61.3,61.3,61.3s61.3-27.5,61.3-61.3S133.8,38.7,100,38.7z"/>
</g>
</svg>
