<?xml version="1.0" encoding="utf-8"?>
<!-- Generator: Adobe Illustrator 18.1.1, SVG Export Plug-In . SVG Version: 6.00 Build 0)  -->
<svg version="1.1" id="Layer_1" xmlns="http://www.w3.org/2000/svg" xmlns:xlink="http://www.w3.org/1999/xlink" x="0px" y="0px"
	 viewBox="0 0 400 400" enable-background="new 0 0 400 400" xml:space="preserve">
<g>
	<path fill="#F7931A" d="M394,248.4C367.1,355.7,258.9,420.8,151.6,394C44.3,367.1-20.8,258.9,6,151.6S141.1-20.8,248.4,6
		S420.8,141.1,394,248.4L394,248.4z"/>
	<path fill="#FFFFFF" d="M288.6,170.8c3.8-26.8-16.3-41.2-44.1-50.8l8.6-36.4l-22-5.7l-8.6,35.4c-5.7-1.9-11.5-2.9-17.2-3.8
		l8.6-35.4l-22-5.7l-8.6,36.4c-4.8-1-45-11.5-45-11.5l-5.7,23l16.3,3.8c8.6,1.9,10.5,7.7,10.5,12.5l-10.5,41.2c1,0,1.9,0,1.9,1
		c-1,0-1.9,0-1.9-1l-14.4,57.5c-1,2.9-3.8,6.7-10.5,5.7l-16.3-3.8L97,258c0,0,39.3,9.6,44.1,10.5l-8.6,36.4l22,5.7l8.6-36.4
		c5.7,1.9,11.5,2.9,17.2,4.8l-8.6,35.4l22,5.7l8.6-36.4c37.4,6.7,66.1,3.8,77.6-29.7c9.6-26.8,0-43.1-20.1-53.6
		C275.2,200.5,285.7,190.9,288.6,170.8L288.6,170.8z M238.8,241.7c-6.7,26.8-52.7,12.5-68,8.6l12.5-47.9
		C197.6,206.2,245.5,212.9,238.8,241.7L238.8,241.7z M245.5,170.8c-5.7,24.9-44.1,12.5-56.5,8.6l10.5-44.1
		C212,139.2,251.2,144.9,245.5,170.8z"/>
</g>
</svg>
