<?xml version="1.0" encoding="utf-8"?>
<!-- Generator: Adobe Illustrator 18.1.1, SVG Export Plug-In . SVG Version: 6.00 Build 0)  -->
<svg version="1.1" id="Layer_1" xmlns="http://www.w3.org/2000/svg" xmlns:xlink="http://www.w3.org/1999/xlink" x="0px" y="0px"
	 viewBox="0 0 24 24" enable-background="new 0 0 24 24" xml:space="preserve">
<circle fill="#3F98D4" cx="12" cy="12" r="12"/>
<polygon fill="#FFFFFF" points="19,8.5 19,6.9 13.3,6.9 13.3,17.2 19,17.2 19,15.6 15.3,15.6 15.3,12.6 18.2,12.6 18.2,11 15.3,11 
	15.3,8.5 "/>
<path fill="#434242" d="M8.3,6.9c-2.1,0-3.5,0-3.5,0v10.3h2v-3.6c0,0-0.9,0,1.5,0C12.6,13.5,12.6,6.8,8.3,6.9z M8.2,12H6.8V8.5h1.5
	v0C10.1,8.5,10.1,12,8.2,12z"/>
</svg>
