<?xml version="1.0" encoding="utf-8"?>
<!-- Generator: Adobe Illustrator 18.1.1, SVG Export Plug-In . SVG Version: 6.00 Build 0)  -->
<svg version="1.1" id="Layer_1" xmlns="http://www.w3.org/2000/svg" xmlns:xlink="http://www.w3.org/1999/xlink" x="0px" y="0px"
	 viewBox="0 0 200 200" enable-background="new 0 0 200 200" xml:space="preserve">
<circle fill="#5588C7" cx="100" cy="100" r="100"/>
<g>
	<rect x="92.4" y="69.6" fill="#FFFFFF" width="15.5" height="59.3"/>
	<polygon fill="#FFFFFF" points="80.3,69.6 80.3,101.8 31.8,71.2 29.2,71.2 29.2,130.4 35.5,130.4 35.5,99.1 83.8,128.8 86.6,128.8 
		86.6,69.6 	"/>
	<path fill="#FFFFFF" d="M154,69.6c0,0,0,16.7,0,18c0,3-1.3,4.7-4.3,6c-2.1,0.8-5.4,1.1-7.7,1.1c-2.5,0-5.7-0.3-7.7-1.1
		c-3-1.1-4.3-3-4.3-6c0-1.6,0-18,0-18h-15.5c0,0,0,14.5,0,14.7c0,4.9,1.4,8.2,4.3,10.6c1.6,1.3,3.8,2.2,6.2,2.8
		c-2.4,0.6-4.6,1.6-6.2,2.8c-2.8,2.4-4.3,5.5-4.3,10.6c0,0.5,0,17.8,0,17.8H130c0,0,0-19.4,0-21.1c0-3,1.3-4.7,4.3-6
		c2.1-0.8,5.4-1.1,7.7-1.1c2.5,0,5.7,0.3,7.7,1.1c3,1.1,4.3,3,4.3,6c0,1.6,0,21.1,0,21.1h15.5c0,0,0-17.4,0-17.8
		c0-4.9-1.4-8.2-4.3-10.6c-1.6-1.3-3.8-2.2-6.2-2.8c2.4-0.6,4.6-1.6,6.2-2.8c2.8-2.4,4.3-5.5,4.3-10.6c0-0.2,0-14.7,0-14.7L154,69.6
		z"/>
</g>
</svg>
