<?xml version="1.0" encoding="utf-8"?>
<!-- Generator: Adobe Illustrator 18.1.1, SVG Export Plug-In . SVG Version: 6.00 Build 0)  -->
<svg version="1.1" id="Layer_1" xmlns="http://www.w3.org/2000/svg" xmlns:xlink="http://www.w3.org/1999/xlink" x="0px" y="0px"
	 viewBox="0 0 24 24" enable-background="new 0 0 24 24" xml:space="preserve">
<circle fill="#ED2422" cx="12" cy="12" r="12"/>
<g>
	<path fill="#FFFFFF" d="M7,12.5H6.1v2.4c0,0.3,0.4,0.6,1.3,0.6v0.4H3.8v-0.4c0.5,0,1.1-0.3,1.1-0.7V9.2c0-0.4-0.7-0.6-1.2-0.6V8.1
		h3.6C11.1,8.1,10.9,12.5,7,12.5z M6.9,8.5H6.1V12h0.6C9.3,12,9.5,8.5,6.9,8.5z"/>
	<path fill="#FFFFFF" d="M20.2,15.9h-3.5v-0.4c0.7,0,1.3-0.2,1.3-0.6V9.1h-0.1l-2.7,6.7h-0.3L12.4,9h-0.1v4.7c0,0.5,0,0.8,0.1,1
		c0.3,0.5,0.7,0.8,1.3,0.8v0.4h-3.2v-0.4c0.2,0,1-0.2,1.2-0.8c0-0.2,0.1-0.6,0.1-1.1v-4c0-1-0.6-1.3-1.2-1.3V8.1h2.7l2.2,5.9
		c0,0,2.2-5.9,2.2-6h2.6v0.4c-0.8,0-1.2,0.3-1.2,0.6v5.7c0,0.4,0.6,0.7,1.2,0.7v0.5H20.2z"/>
</g>
</svg>
