<?xml version="1.0" encoding="utf-8"?>
<!-- Generator: Adobe Illustrator 18.1.1, SVG Export Plug-In . SVG Version: 6.00 Build 0)  -->
<svg version="1.1" id="Layer_1" xmlns="http://www.w3.org/2000/svg" xmlns:xlink="http://www.w3.org/1999/xlink" x="0px" y="0px"
	 viewBox="0 0 200 200" enable-background="new 0 0 200 200" xml:space="preserve">
<path id="D" fill="#1E75BB" d="M197.5,60.5c-0.2-3.3-1.2-6.6-2.9-9.5c-1.5-3-4.2-5.3-7.3-6.5c-3.2-1.6-6.8-2.3-10.3-2.3H43.9
	l-9.5,28.6H155L136,129.2H15.3l-9.5,28.6h133.8c4-0.1,7.9-0.9,11.7-2.3c3.8-2.1,8-4.3,11.7-7.3c3.5-2.8,6.8-6,9.5-9.5
	c2.3-3.5,4.3-7.2,5.9-11l17.7-55.6C197.7,68.5,198.2,64.5,197.5,60.5L197.5,60.5z"/>
<path id="_-" fill="#1E75BB" d="M81.9,86.7h-71l-9.5,26.4h71.7L81.9,86.7z"/>
</svg>
