<?xml version="1.0" encoding="utf-8"?>
<!-- Generator: Adobe Illustrator 18.1.1, SVG Export Plug-In . SVG Version: 6.00 Build 0)  -->
<svg version="1.1" id="Capa_1" xmlns="http://www.w3.org/2000/svg" xmlns:xlink="http://www.w3.org/1999/xlink" x="0px" y="0px"
	 viewBox="0 0 200 200" enable-background="new 0 0 200 200" xml:space="preserve">
<circle fill="#FFFFFF" cx="100" cy="100" r="74.5"/>
<linearGradient id="SVGID_1_" gradientUnits="userSpaceOnUse" x1="0" y1="200" x2="1" y2="200" gradientTransform="matrix(101.8859 154.191 -154.191 101.8859 30892.7207 -20346.0273)">
	<stop  offset="0" style="stop-color:#F1D200"/>
	<stop  offset="5.128205e-003" style="stop-color:#F1D200"/>
	<stop  offset="1" style="stop-color:#D27D00"/>
</linearGradient>
<path fill="url(#SVGID_1_)" d="M100,15c-46.9,0-85,38.1-85,85s38.1,85,85,85s85-38.1,85-85S146.9,15,100,15z M100,165.4
	c-36.1,0-65.4-29.3-65.4-65.4S63.9,34.6,100,34.6s65.4,29.3,65.4,65.4S136.1,165.4,100,165.4z"/>
<path fill="#132365" d="M71.7,129.1l3.3-6.5h39.2c5.4,0,9.8-4.4,9.8-9.8c0-5.4-4.4-9.8-9.8-9.8H81.5v-6.5h32.7
	c9,0,16.3,7.3,16.3,16.3c0,9-7.3,16.3-16.3,16.3H71.7z"/>
<path fill="#132365" d="M71.7,69.9l3.3,6.5h34.9c5.4,0,9.8,4.4,9.8,9.8s-4.4,9.8-9.8,9.8H84.7v6.5h25.1c9,0,16.3-7.3,16.3-16.3
	c0-9-7.3-16.3-16.3-16.3H71.7z"/>
<rect x="81.5" y="70.2" fill="#132365" width="6.5" height="58.8"/>
<rect x="89.5" y="60" fill="#132365" width="6.5" height="13.1"/>
<path fill="#132365" d="M111.1,74h-8.4V59.1h8.4V74z M104.5,72.2h4.7V60.9h-4.7V72.2z"/>
<rect x="89.5" y="125.4" fill="#132365" width="6.5" height="13.1"/>
<path fill="#132365" d="M124,97.5c2.5-3.1,3.9-7,3.9-11.3c0-9.9-8-17.9-17.8-18.1v-8h-6.5v8h-6.7v-8.9h-8.4V68H68.7l5.1,10.2h5.9
	v16.3v10.2v16h-5.8l-5.1,10.2h10.9h8.9v8.5h8.4v-8.5h6.7v7.6h6.5v-7.6h4c10,0,18.2-8.1,18.2-18.2C132.3,106.3,129,100.7,124,97.5z
	 M103.6,71.7v1.4h6.5v-1.4c7.9,0.2,14.2,6.6,14.2,14.5c0,3.7-1.4,7-3.6,9.6c-1-0.4-2.1-0.7-3.1-0.9c2.4-2.1,3.9-5.2,3.9-8.7
	c0-6.4-5.2-11.6-11.6-11.6h-20V74h7.1v-2.4H103.6z M89.8,98.2h24.3c1.1,0,2.2,0.1,3.2,0.4c-2.2,1.4-4.8,2.2-7.6,2.2h-20V98.2z
	 M109.8,94.2h-20v-16h20c4.4,0,8,3.6,8,8C117.8,90.6,114.2,94.2,109.8,94.2z M114.2,104.7c4.4,0,8,3.6,8,8c0,4.4-3.6,8-8,8H89.8v-16
	H114.2z M90.4,71.7h4.7v0.5h-4.7V71.7z M86.2,72v2.5h-2.9V72H86.2z M90.4,60.9h4.7V68h-4.7V60.9z M76.1,74.6l-1.5-2.9h5.1v2.9H76.1z
	 M86.2,78.2v16h-2.9v-16H86.2z M83.3,104.7h2.9v16h-2.9V104.7z M74.6,127.2l1.5-2.9h3.6v2.9H74.6z M83.3,127.2v-2.9h2.9v2.9H83.3z
	 M95.1,127.2h-4.7v-0.9h4.7V127.2z M95.1,137.6h-4.7v-6.7h4.7V137.6z M114.2,127.2h-4v-1.8h-6.5v1.8h-6.7v-2.7h-7.1v-0.2h24.3
	c6.4,0,11.6-5.2,11.6-11.6c0-4.8-2.9-8.9-7.1-10.7c1-0.5,1.9-1.2,2.7-1.9c4.3,2.5,7.3,7.2,7.3,12.6
	C128.7,120.7,122.2,127.2,114.2,127.2z"/>
<path fill="#132365" d="M111.1,139.4h-8.4v-14.9h8.4V139.4z M104.5,137.6h4.7v-11.3h-4.7V137.6z"/>
<path fill="#132365" d="M100,157.9c-31.9,0-57.9-26-57.9-57.9c0-31.9,26-57.9,57.9-57.9c31.9,0,57.9,26,57.9,57.9
	C157.9,131.9,131.9,157.9,100,157.9z M100,47.9c-28.7,0-52.1,23.4-52.1,52.1s23.4,52.1,52.1,52.1s52.1-23.4,52.1-52.1
	S128.7,47.9,100,47.9z"/>
</svg>
